<svg viewBox="0 0 120 80" fill="none" xmlns="http://www.w3.org/2000/svg">
  <path fill="#0a0a0a" d="M6 60 C 4 56, 8 52, 14 53 C 18 54, 21 58, 22 61 C 24 53, 28 49, 32 49 C 36 49, 40 53, 41 60 C 43 53, 46 50, 50 50 C 54 50, 57 53, 58 59 C 60 51, 62 44, 67 38 C 72 32, 80 26, 90 24 C 100 22, 108 26, 109 33 C 110 38, 106 41, 100 41 C 96 41, 93 39, 91 38 C 92 41, 91 44, 87 45 C 84 46, 81 45, 79 42 C 76 47, 71 51, 66 55 C 62 58, 60 61, 59 65 L 6 65 Z"></path>
  <circle cx="100" cy="32" r="2.2" fill="#ffffff"></circle>
  <circle cx="100.4" cy="32.2" r="1.1" fill="#0a0a0a"></circle>
  <path d="M93 39 Q95 41 97 40" stroke="#ffffff" stroke-width="1" stroke-linecap="round" fill="none" opacity="0.85"></path>
  <path d="M4 70 Q14 67 24 70 T44 70 T64 70 T84 70 T108 70 T118 70" stroke="#0a0a0a" stroke-width="1.5" stroke-linecap="round" opacity="0.4" fill="none"></path>
  <path d="M2 75 Q12 73 22 75 T40 75 T60 75 T82 75 T106 75 T118 75" stroke="#0a0a0a" stroke-width="1" stroke-linecap="round" opacity="0.25" fill="none"></path>
</svg>