<svg viewBox="0 0 200 260" xmlns="http://www.w3.org/2000/svg" preserveAspectRatio="xMidYMid slice">
  <defs>
    <linearGradient id="ink" x1="0" y1="0" x2="0" y2="1">
      <stop offset="0" stop-color="#171717"></stop><stop offset="1" stop-color="#404040"></stop>
    </linearGradient>
  </defs>
  <rect width="200" height="260" fill="url(#ink)"></rect>
  <g fill="none" stroke="#0a0a0a" stroke-linecap="round" stroke-linejoin="round">
    <path d="M30 165 Q40 130 60 165 Q70 145 85 165 Q92 155 95 140 Q100 110 130 100 Q160 95 170 115 Q172 125 165 128 Q155 130 145 128" stroke-width="14" opacity="0.92"></path>
    <circle cx="158" cy="113" r="3" fill="#0a0a0a" opacity="0.92"></circle>
    <path d="M15 180 Q40 175 65 180 T115 180 T165 180 T195 180" stroke-width="1.5" opacity="0.35" stroke="#e5e5e5"></path>
    <path d="M5 200 Q30 196 55 200 T105 200 T155 200 T195 200" stroke-width="1.5" opacity="0.3" stroke="#e5e5e5"></path>
    <path d="M0 220 Q30 217 60 220 T120 220 T180 220 T200 220" stroke-width="1.5" opacity="0.22" stroke="#e5e5e5"></path>
  </g>
</svg>