<svg viewBox="0 0 200 260" xmlns="http://www.w3.org/2000/svg" preserveAspectRatio="xMidYMid slice">
  <defs>
    <linearGradient id="sky" x1="0" y1="0" x2="0" y2="1">
      <stop offset="0" stop-color="#bfdbfe"></stop><stop offset="0.5" stop-color="#dbeafe"></stop><stop offset="1" stop-color="#dcfce7"></stop>
    </linearGradient>
  </defs>
  <rect width="200" height="260" fill="url(#sky)"></rect>
  <circle cx="155" cy="55" r="22" fill="#fef3c7" opacity="0.85"></circle>
  <path d="M0 175 Q40 145 80 170 T160 165 T200 170 L200 260 L0 260 Z" fill="#bbf7d0" opacity="0.6"></path>
  <g fill="#15803d" opacity="0.85">
    <circle cx="30" cy="170" r="14"></circle><circle cx="50" cy="178" r="10"></circle>
    <circle cx="160" cy="170" r="14"></circle><circle cx="180" cy="178" r="10"></circle>
  </g>
  <g fill="#ffffff" stroke="#2563eb" stroke-width="1.5" opacity="0.95">
    <rect x="55" y="130" width="32" height="60" rx="6"></rect>
    <rect x="95" y="100" width="28" height="90" rx="6"></rect>
    <rect x="130" y="120" width="26" height="70" rx="6"></rect>
  </g>
  <g stroke="#2563eb" stroke-width="1" opacity="0.55">
    <line x1="55" y1="145" x2="87" y2="145"></line><line x1="55" y1="158" x2="87" y2="158"></line><line x1="55" y1="171" x2="87" y2="171"></line>
    <line x1="95" y1="115" x2="123" y2="115"></line><line x1="95" y1="130" x2="123" y2="130"></line><line x1="95" y1="145" x2="123" y2="145"></line><line x1="95" y1="160" x2="123" y2="160"></line><line x1="95" y1="175" x2="123" y2="175"></line>
    <line x1="130" y1="135" x2="156" y2="135"></line><line x1="130" y1="150" x2="156" y2="150"></line><line x1="130" y1="165" x2="156" y2="165"></line>
  </g>
  <path d="M0 245 Q50 235 100 245 T200 245" stroke="#2563eb" stroke-width="1.5" fill="none" opacity="0.45"></path>
</svg>